<svg viewBox="0 0 1688 896" xmlns="http://www.w3.org/2000/svg">

  <defs>
    <!-- Gradiente principal -->
    <linearGradient id="bgGradient" x1="0" y1="0" x2="0" y2="896" gradientUnits="userSpaceOnUse">
      <stop offset="0%" stop-color="#314a86"/>
      <stop offset="100%" stop-color="#1f2f57"/>
    </linearGradient>

    <!-- Glow suave -->
    <radialGradient id="centerGlow" cx="50%" cy="30%" r="60%">
      <stop offset="0%" stop-color="#4da8ff" stop-opacity="0.15"/>
      <stop offset="100%" stop-color="#4da8ff" stop-opacity="0"/>
    </radialGradient>
  </defs>

  <!-- Base -->
  <path 
    d="M0 73.5C0 56.9315 13.4315 43.5 30 43.5H641.409C665.549 43.5 688.773 34.2581 706.312 17.6719C718.313 6.32341 734.203 0 750.72 0H936.302C954.204 0 971.543 6.2503 985.328 17.6719C1005.47 34.365 1030.82 43.5 1056.98 43.5H1658C1674.57 43.5 1688 56.9315 1688 73.5V835.5C1688 852.069 1674.57 865.5 1658 865.5H1499.48C1492.09 865.5 1484.96 868.231 1479.45 873.169L1462.55 888.331C1457.04 893.269 1449.91 896 1442.52 896H302.72C294.59 896 286.809 892.7 281.157 886.857L269.343 874.643C263.691 868.8 255.91 865.5 247.78 865.5H30C13.4315 865.5 0 852.069 0 835.5V73.5Z" 
    fill="url(#bgGradient)"
  />

  <!-- Glow central -->
  <path 
    d="M0 73.5C0 56.9315 13.4315 43.5 30 43.5H641.409C665.549 43.5 688.773 34.2581 706.312 17.6719C718.313 6.32341 734.203 0 750.72 0H936.302C954.204 0 971.543 6.2503 985.328 17.6719C1005.47 34.365 1030.82 43.5 1056.98 43.5H1658C1674.57 43.5 1688 56.9315 1688 73.5V835.5C1688 852.069 1674.57 865.5 1658 865.5H1499.48C1492.09 865.5 1484.96 868.231 1479.45 873.169L1462.55 888.331C1457.04 893.269 1449.91 896 1442.52 896H302.72C294.59 896 286.809 892.7 281.157 886.857L269.343 874.643C263.691 868.8 255.91 865.5 247.78 865.5H30C13.4315 865.5 0 852.069 0 835.5V73.5Z" 
    fill="url(#centerGlow)"
  />

</svg>