<svg width="53" height="53" viewBox="0 0 53 53" fill="none" xmlns="http://www.w3.org/2000/svg">
<g clip-path="url(#clip0_54_16)">
<path fill-rule="evenodd" clip-rule="evenodd" d="M37.3236 27.9575L27.9558 37.3319C27.5583 37.7294 27.0151 37.8454 26.5 37.746C25.9849 37.8454 25.4417 37.7294 25.0442 37.3319L15.6764 27.9575C15.0288 27.3116 15.0288 26.2681 15.6764 25.6056C16.3223 24.9596 17.3707 24.9596 18.0183 25.6056L24.8438 32.4459V14.9062C24.8438 13.9953 25.5858 13.25 26.5 13.25C27.4159 13.25 28.1562 13.9953 28.1562 14.9062V32.4459L34.9817 25.6056C35.6293 24.9596 36.6793 24.9596 37.3236 25.6056C37.9712 26.2681 37.9712 27.3116 37.3236 27.9575ZM26.5 0C11.8637 0 0 11.8587 0 26.5C0 41.1413 11.8637 53 26.5 53C41.1363 53 53 41.1413 53 26.5C53 11.8587 41.1363 0 26.5 0Z" />
</g>
<defs>
<clipPath id="clip0_54_16">
<rect width="53" height="53" fill="white"/>
</clipPath>
</defs>
</svg>
